<?xml version="1.0" encoding="UTF-8" standalone="no"?>
<!-- Generator: Adobe Illustrator 24.0.0, SVG Export Plug-In . SVG Version: 6.00 Build 0)  -->

<svg
   version="1.1"
   id="Layer_1"
   x="0px"
   y="0px"
   viewBox="0 0 800 800"
   style="enable-background:new 0 0 800 800;"
   xml:space="preserve"
   sodipodi:docname="aethusdt.svg"
   inkscape:version="1.3.2 (091e20ef0f, 2023-11-25)"
   xmlns:inkscape="http://www.inkscape.org/namespaces/inkscape"
   xmlns:sodipodi="http://sodipodi.sourceforge.net/DTD/sodipodi-0.dtd"
   xmlns:xlink="http://www.w3.org/1999/xlink"
   xmlns="http://www.w3.org/2000/svg"
   xmlns:svg="http://www.w3.org/2000/svg"><defs
   id="defs2" /><sodipodi:namedview
   id="namedview2"
   pagecolor="#ffffff"
   bordercolor="#000000"
   borderopacity="0.25"
   inkscape:showpageshadow="2"
   inkscape:pageopacity="0.0"
   inkscape:pagecheckerboard="0"
   inkscape:deskcolor="#d1d1d1"
   inkscape:zoom="0.465625"
   inkscape:cx="618.52349"
   inkscape:cy="512.21476"
   inkscape:window-width="1604"
   inkscape:window-height="947"
   inkscape:window-x="957"
   inkscape:window-y="261"
   inkscape:window-maximized="0"
   inkscape:current-layer="Layer_1" />
<style
   type="text/css"
   id="style1">
	.st0{clip-path:url(#SVGID_2_);}
	.st1{fill:url(#SVGID_3_);}
	.st2{fill:#FFFFFF;}
</style>
<g
   id="g2">
	<defs
   id="defs1">
		<rect
   id="SVGID_1_"
   width="800"
   height="800" />
	</defs>
	<clipPath
   id="SVGID_2_">
		<use
   xlink:href="#SVGID_1_"
   style="overflow:visible;"
   id="use1" />
	</clipPath>
	<g
   id="b"
   class="st0"
   clip-path="url(#SVGID_2_)">
		
			<linearGradient
   id="SVGID_3_"
   gradientUnits="userSpaceOnUse"
   x1="-597.3553"
   y1="900.6861"
   x2="-598.0993"
   y2="900.0601"
   gradientTransform="matrix(776 0 0 -776 464237 699089)">
			<stop
   offset="0"
   style="stop-color:#B6509E"
   id="stop1" />
			<stop
   offset="1"
   style="stop-color:#2EBAC6"
   id="stop2" />
		</linearGradient>
		<circle
   class="st1"
   cx="400"
   cy="400"
   r="388"
   id="circle2" />
		<path
   class="st2"
   d="M569.8,554.6L438.6,237.4c-7.4-16.4-18.4-24.4-32.9-24.4h-11.6c-14.5,0-25.5,8-32.9,24.4l-57.1,138.2h-43.2    c-12.9,0.1-23.4,10.5-23.5,23.5v0.3c0.1,12.9,10.6,23.4,23.5,23.5h23.2l-54.5,131.7c-1,2.9-1.6,5.9-1.6,9c0,7.4,2.3,13.2,6.4,17.7    s10,6.7,17.4,6.7c4.9-0.1,9.6-1.6,13.5-4.5c4.2-2.9,7.1-7.1,9.4-11.9l60-148.8h41.6c12.9-0.1,23.4-10.5,23.5-23.5v-0.6    c-0.1-12.9-10.6-23.4-23.5-23.5h-22.2l45.8-114.1l124.8,310.4c2.3,4.8,5.2,9,9.4,11.9c3.9,2.9,8.7,4.4,13.5,4.5    c7.4,0,13.2-2.2,17.4-6.7c4.2-4.5,6.4-10.3,6.4-17.7C571.5,560.5,571,557.4,569.8,554.6z"
   id="path2" />
	</g>
</g><path
   d="M 400.00001,724.72474 C 579.9527,724.72474 724.72473,579.9527 724.72473,400 724.72473,220.0473 579.9527,75.275262 400.00001,75.275262 220.04731,75.275262 75.275272,220.0473 75.275272,400 c 0,179.9527 144.772038,324.72474 324.724738,324.72474 z"
   fill="#2775ca"
   id="path1-6"
   style="fill:#50af95;fill-opacity:1;stroke-width:0.324724" />
<path
   d="m 400.00001,681.23152 c 155.85006,0 281.2315,-125.38145 281.2315,-281.23152 0,-155.85007 -125.38144,-281.23152 -281.2315,-281.23152 -155.85007,0 -281.23152,125.38145 -281.23152,281.23152 0,155.85007 125.38145,281.23152 281.23152,281.23152 z"
   fill="#2775ca"
   id="path1"
   style="fill:#ffffff;stroke-width:0.281231" /><path
   d="M 246.1341,220.89075 157.60382,406.8487 a 3.6047233,3.6047233 0 0 0 0.77244,4.20551 l 239.099,229.11449 a 3.6476367,3.6476367 0 0 0 5.04948,0 l 239.099,-229.10019 a 3.6047233,3.6047233 0 0 0 0.77244,-4.20551 L 553.8659,220.90505 a 3.5761144,3.5761144 0 0 0 -3.26142,-2.08845 H 249.42413 a 3.5761144,3.5761144 0 0 0 -3.29003,2.07415 z"
   style="fill:#50af95;fill-rule:evenodd;stroke-width:1.43045"
   id="path1-2" /><path
   d="m 430.71882,425.94515 v 0 c -1.71653,0.12874 -10.5853,0.658 -30.36836,0.658 -15.7349,0 -26.90669,-0.47205 -30.82611,-0.658 v 0 c -60.80825,-2.67494 -106.19629,-13.26024 -106.19629,-25.93399 0,-12.67374 45.38804,-23.24474 106.19629,-25.96259 v 41.35419 c 3.97664,0.28609 15.36299,0.9584 31.09789,0.9584 18.88189,0 28.33713,-0.78675 30.03936,-0.94409 v -41.33989 c 60.67951,2.70355 105.96743,13.28884 105.96743,25.93398 0,12.64514 -45.27361,23.23044 -105.96743,25.91968 v 0 z m 0,-56.145 v -37.00563 h 84.68239 V 276.36343 H 284.84196 v 56.43109 h 84.66809 v 36.99133 c -68.81875,3.16128 -120.57227,16.79343 -120.57227,33.12912 0,16.33569 51.75352,29.95353 120.57227,33.12912 v 118.58396 h 61.19447 V 436.00118 c 68.66139,-3.16129 120.32909,-16.77913 120.32909,-33.10052 0,-16.32138 -51.62478,-29.93922 -120.32909,-33.11481 v 0 z m 0,0 z"
   style="fill:#ffffff;fill-rule:evenodd;stroke-width:1.43045"
   id="path2-7" /></svg>
