<?xml version="1.0" encoding="UTF-8" standalone="no"?>
<!-- Generator: Adobe Illustrator 24.0.0, SVG Export Plug-In . SVG Version: 6.00 Build 0)  -->

<svg
   version="1.1"
   id="Layer_1"
   x="0px"
   y="0px"
   viewBox="0 0 800 800"
   style="enable-background:new 0 0 800 800;"
   xml:space="preserve"
   sodipodi:docname="aethusdc.svg"
   inkscape:version="1.3.2 (091e20ef0f, 2023-11-25)"
   xmlns:inkscape="http://www.inkscape.org/namespaces/inkscape"
   xmlns:sodipodi="http://sodipodi.sourceforge.net/DTD/sodipodi-0.dtd"
   xmlns:xlink="http://www.w3.org/1999/xlink"
   xmlns="http://www.w3.org/2000/svg"
   xmlns:svg="http://www.w3.org/2000/svg"><defs
   id="defs2" /><sodipodi:namedview
   id="namedview2"
   pagecolor="#ffffff"
   bordercolor="#000000"
   borderopacity="0.25"
   inkscape:showpageshadow="2"
   inkscape:pageopacity="0.0"
   inkscape:pagecheckerboard="0"
   inkscape:deskcolor="#d1d1d1"
   inkscape:zoom="0.65849319"
   inkscape:cx="416.10149"
   inkscape:cy="512.53377"
   inkscape:window-width="1604"
   inkscape:window-height="947"
   inkscape:window-x="1014"
   inkscape:window-y="212"
   inkscape:window-maximized="0"
   inkscape:current-layer="Layer_1" />
<style
   type="text/css"
   id="style1">
	.st0{clip-path:url(#SVGID_2_);}
	.st1{fill:url(#SVGID_3_);}
	.st2{fill:#FFFFFF;}
</style>
<g
   id="g2">
	<defs
   id="defs1">
		<rect
   id="SVGID_1_"
   width="800"
   height="800" />
	</defs>
	<clipPath
   id="SVGID_2_">
		<use
   xlink:href="#SVGID_1_"
   style="overflow:visible;"
   id="use1" />
	</clipPath>
	<g
   id="b"
   class="st0"
   clip-path="url(#SVGID_2_)">
		
			<linearGradient
   id="SVGID_3_"
   gradientUnits="userSpaceOnUse"
   x1="-597.3553"
   y1="900.6861"
   x2="-598.0993"
   y2="900.0601"
   gradientTransform="matrix(776 0 0 -776 464237 699089)">
			<stop
   offset="0"
   style="stop-color:#B6509E"
   id="stop1" />
			<stop
   offset="1"
   style="stop-color:#2EBAC6"
   id="stop2" />
		</linearGradient>
		<circle
   class="st1"
   cx="400"
   cy="400"
   r="388"
   id="circle2" />
		<path
   class="st2"
   d="M569.8,554.6L438.6,237.4c-7.4-16.4-18.4-24.4-32.9-24.4h-11.6c-14.5,0-25.5,8-32.9,24.4l-57.1,138.2h-43.2    c-12.9,0.1-23.4,10.5-23.5,23.5v0.3c0.1,12.9,10.6,23.4,23.5,23.5h23.2l-54.5,131.7c-1,2.9-1.6,5.9-1.6,9c0,7.4,2.3,13.2,6.4,17.7    s10,6.7,17.4,6.7c4.9-0.1,9.6-1.6,13.5-4.5c4.2-2.9,7.1-7.1,9.4-11.9l60-148.8h41.6c12.9-0.1,23.4-10.5,23.5-23.5v-0.6    c-0.1-12.9-10.6-23.4-23.5-23.5h-22.2l45.8-114.1l124.8,310.4c2.3,4.8,5.2,9,9.4,11.9c3.9,2.9,8.7,4.4,13.5,4.5    c7.4,0,13.2-2.2,17.4-6.7c4.2-4.5,6.4-10.3,6.4-17.7C571.5,560.5,571,557.4,569.8,554.6z"
   id="path2" />
	</g>
</g><path
   d="M 400.00001,724.72474 C 579.9527,724.72474 724.72473,579.9527 724.72473,400 724.72473,220.0473 579.9527,75.275262 400.00001,75.275262 220.04731,75.275262 75.275272,220.0473 75.275272,400 c 0,179.9527 144.772038,324.72474 324.724738,324.72474 z"
   fill="#2775ca"
   id="path1-6"
   style="fill:#2775ca;fill-opacity:1;stroke-width:0.324724" />
<path
   d="m 400.00001,681.23152 c 155.85006,0 281.2315,-125.38145 281.2315,-281.23152 0,-155.85007 -125.38144,-281.23152 -281.2315,-281.23152 -155.85007,0 -281.23152,125.38145 -281.23152,281.23152 0,155.85007 125.38145,281.23152 281.23152,281.23152 z"
   fill="#2775ca"
   id="path1"
   style="fill:#ffffff;stroke-width:0.281231" /><path
   d="m 478.51,441.59836 c 0,-41.01199 -24.60777,-55.07357 -73.82328,-60.93163 -35.15395,-4.68813 -42.18473,-14.06157 -42.18473,-30.46862 0,-16.40705 11.71891,-26.95042 35.15393,-26.95042 21.09236,0 32.81129,7.03079 38.66934,24.60777 1.17273,3.51538 4.68814,5.85804 8.20353,5.85804 h 18.74688 c 4.68814,0 8.20353,-3.51539 8.20353,-8.2007 v -1.17274 c -4.68813,-25.78049 -25.78049,-45.70013 -52.73092,-48.04278 v -28.12316 c 0,-4.68812 -3.51539,-8.20352 -9.37342,-9.37626 h -17.57698 c -4.68813,0 -8.20353,3.5154 -9.37626,9.37626 v 26.95043 c -35.15395,4.68813 -57.41622,28.12314 -57.41622,57.41903 0,38.66933 23.43502,53.90085 72.65053,59.76171 32.81128,5.85806 43.35748,12.88884 43.35748,31.63855 0,18.7497 -16.40706,31.63854 -38.66934,31.63854 -30.46863,0 -41.01481,-12.89166 -44.5302,-30.46862 -1.16993,-4.68532 -4.68533,-7.0308 -8.20072,-7.0308 h -19.92244 c -4.68531,0 -8.20071,3.5154 -8.20071,8.20353 v 1.17273 c 4.68531,29.29307 23.43502,50.38545 62.10435,56.24631 v 28.12315 c 0,4.68531 3.5154,8.20071 9.37345,9.37345 h 17.57698 c 4.68812,0 8.2035,-3.5154 9.37626,-9.37345 v -28.12315 c 35.15393,-5.86087 58.58897,-30.46863 58.58896,-62.10717 z"
   fill="#ffffff"
   id="path2-3"
   style="fill:#2775ca;fill-opacity:1;stroke-width:0.281231" /><path
   d="M 340.23831,564.05078 C 248.83805,531.24231 201.96519,429.29589 235.94921,339.06556 c 17.57697,-49.21552 56.24631,-86.71212 104.2891,-104.28909 4.68812,-2.34266 7.03078,-5.85805 7.03078,-11.71892 v -16.40424 c 0,-4.68811 -2.34266,-8.20352 -7.03078,-9.37343 -1.17275,0 -3.51541,0 -4.68814,1.16991 -111.31986,35.15396 -172.2543,153.50742 -137.10037,264.8273 21.09236,65.61975 71.48061,116.00801 137.10037,137.10037 4.68814,2.34266 9.37626,0 10.54617,-4.68814 1.17275,-1.16991 1.17275,-2.34265 1.17275,-4.68532 v -16.40704 c 0,-3.51538 -3.51539,-8.2007 -7.03078,-10.54618 z M 464.44983,198.44979 c -4.68813,-2.34265 -9.37626,0 -10.54618,4.68813 -1.17274,1.17275 -1.17274,2.34266 -1.17274,4.68814 v 16.40423 c 0,4.68813 3.51539,9.37346 7.03079,11.71893 91.40028,32.80845 138.2731,134.75489 104.28911,224.98521 -17.577,49.21552 -56.24636,86.71212 -104.28911,104.28908 -4.68813,2.34266 -7.03079,5.85807 -7.03079,11.71893 v 16.40423 c 0,4.68813 2.34266,8.20353 7.03079,9.37345 1.17274,0 3.5154,0 4.68813,-1.16992 C 575.76973,566.39626 636.70416,448.04277 601.55019,336.72291 580.45782,269.93042 528.89682,219.54216 464.44983,198.44979 Z"
   fill="#ffffff"
   id="path3"
   style="fill:#2775ca;fill-opacity:1;stroke-width:0.281231" /></svg>
