<?xml version="1.0" encoding="UTF-8" standalone="no"?>
<!-- Generator: Adobe Illustrator 24.0.0, SVG Export Plug-In . SVG Version: 6.00 Build 0)  -->

<svg
   version="1.1"
   id="Layer_1"
   x="0px"
   y="0px"
   viewBox="0 0 800 800"
   style="enable-background:new 0 0 800 800;"
   xml:space="preserve"
   sodipodi:docname="aethdai.svg"
   inkscape:version="1.3.2 (091e20ef0f, 2023-11-25)"
   xmlns:inkscape="http://www.inkscape.org/namespaces/inkscape"
   xmlns:sodipodi="http://sodipodi.sourceforge.net/DTD/sodipodi-0.dtd"
   xmlns="http://www.w3.org/2000/svg"
   xmlns:svg="http://www.w3.org/2000/svg"><defs
   id="defs2" /><sodipodi:namedview
   id="namedview2"
   pagecolor="#ffffff"
   bordercolor="#000000"
   borderopacity="0.25"
   inkscape:showpageshadow="2"
   inkscape:pageopacity="0.0"
   inkscape:pagecheckerboard="0"
   inkscape:deskcolor="#d1d1d1"
   inkscape:zoom="0.65849319"
   inkscape:cx="230.83003"
   inkscape:cy="474.56831"
   inkscape:window-width="1604"
   inkscape:window-height="947"
   inkscape:window-x="747"
   inkscape:window-y="190"
   inkscape:window-maximized="0"
   inkscape:current-layer="b"
   showguides="true"><sodipodi:guide
     position="555.8144,607.13544"
     orientation="0,-1"
     id="guide2"
     inkscape:locked="false" /><sodipodi:guide
     position="440.39939,201.66428"
     orientation="0,-1"
     id="guide3"
     inkscape:locked="false" /></sodipodi:namedview>
<style
   type="text/css"
   id="style1">
	.st0{clip-path:url(#SVGID_2_);}
	.st1{fill:url(#SVGID_3_);}
	.st2{fill:#FFFFFF;}
</style>
<g
   id="b"
   class="st0"
   clip-path="url(#SVGID_2_)"
   style="enable-background:new 0 0 800 800"
   inkscape:label="b">
		
			<linearGradient
   id="SVGID_3_"
   gradientUnits="userSpaceOnUse"
   x1="-597.3553"
   y1="900.6861"
   x2="-598.0993"
   y2="900.0601"
   gradientTransform="matrix(776 0 0 -776 464237 699089)">
			<stop
   offset="0"
   style="stop-color:#B6509E"
   id="stop1" />
			<stop
   offset="1"
   style="stop-color:#2EBAC6"
   id="stop2" />
		</linearGradient>
		
		
	<circle
   class="st1"
   cx="400"
   cy="400"
   r="388"
   id="circle2"
   style="enable-background:new 0 0 800 800" /></g><path
   class="st2"
   d="M569.8,554.6L438.6,237.4c-7.4-16.4-18.4-24.4-32.9-24.4h-11.6c-14.5,0-25.5,8-32.9,24.4l-57.1,138.2h-43.2    c-12.9,0.1-23.4,10.5-23.5,23.5v0.3c0.1,12.9,10.6,23.4,23.5,23.5h23.2l-54.5,131.7c-1,2.9-1.6,5.9-1.6,9c0,7.4,2.3,13.2,6.4,17.7    s10,6.7,17.4,6.7c4.9-0.1,9.6-1.6,13.5-4.5c4.2-2.9,7.1-7.1,9.4-11.9l60-148.8h41.6c12.9-0.1,23.4-10.5,23.5-23.5v-0.6    c-0.1-12.9-10.6-23.4-23.5-23.5h-22.2l45.8-114.1l124.8,310.4c2.3,4.8,5.2,9,9.4,11.9c3.9,2.9,8.7,4.4,13.5,4.5    c7.4,0,13.2-2.2,17.4-6.7c4.2-4.5,6.4-10.3,6.4-17.7C571.5,560.5,571,557.4,569.8,554.6z"
   id="path2"
   style="enable-background:new 0 0 800 800" /><path
   d="M 400.00001,724.72474 C 579.9527,724.72474 724.72473,579.9527 724.72473,400 724.72473,220.0473 579.9527,75.275262 400.00001,75.275262 220.04731,75.275262 75.275272,220.0473 75.275272,400 c 0,179.9527 144.772038,324.72474 324.724738,324.72474 z"
   fill="#2775ca"
   id="path1-6"
   style="fill:#f5ac37;fill-opacity:1;stroke-width:0.324724" />
<path
   d="m 400.00001,681.23152 c 155.85006,0 281.2315,-125.38145 281.2315,-281.23152 0,-155.85007 -125.38144,-281.23152 -281.2315,-281.23152 -155.85007,0 -281.23152,125.38145 -281.23152,281.23152 0,155.85007 125.38145,281.23152 281.23152,281.23152 z"
   fill="#2775ca"
   id="path1"
   style="fill:#ffffff;stroke-width:0.281231" /><path
   d="m 430.71882,425.94515 v 0 c -1.71653,0.12874 -10.5853,0.658 -30.36836,0.658 -15.7349,0 -26.90669,-0.47205 -30.82611,-0.658 v 0 c -60.80825,-2.67494 -106.19629,-13.26024 -106.19629,-25.93399 0,-12.67374 45.38804,-23.24474 106.19629,-25.96259 v 41.35419 c 3.97664,0.28609 15.36299,0.9584 31.09789,0.9584 18.88189,0 28.33713,-0.78675 30.03936,-0.94409 v -41.33989 c 60.67951,2.70355 105.96743,13.28884 105.96743,25.93398 0,12.64514 -45.27361,23.23044 -105.96743,25.91968 v 0 z m 0,-56.145 v -37.00563 h 84.68239 V 276.36343 H 284.84196 v 56.43109 h 84.66809 v 36.99133 c -68.81875,3.16128 -120.57227,16.79343 -120.57227,33.12912 0,16.33569 51.75352,29.95353 120.57227,33.12912 v 118.58396 h 61.19447 V 436.00118 c 68.66139,-3.16129 120.32909,-16.77913 120.32909,-33.10052 0,-16.32138 -51.62478,-29.93922 -120.32909,-33.11481 v 0 z m 0,0 z"
   style="fill:#ffffff;fill-rule:evenodd;stroke-width:1.43045"
   id="path2-7" /><path
   fill="#fefefd"
   fill-rule="nonzero"
   d="M 411.11458,420.33475 H 518.0245 c 2.27899,0 3.35518,0 3.51977,-2.98801 0.87362,-10.87584 0.87362,-21.81499 0,-32.7035 0,-2.11438 -1.05086,-2.988 -3.34251,-2.988 H 305.43278 c -2.63351,0 -3.34252,0.87362 -3.34252,3.34251 v 31.29813 c 0,4.03887 0,4.03887 4.21613,4.03887 z m 98.49032,-75.25729 c 0.30387,-0.79764 0.30387,-1.67126 0,-2.45625 -1.78521,-3.88695 -3.8996,-7.59663 -6.35584,-11.07842 -3.69704,-5.95069 -8.05243,-11.43294 -13.01557,-16.35807 -2.34229,-2.97536 -5.05175,-5.64683 -8.09041,-7.91316 -15.21857,-12.95226 -33.31122,-22.11885 -52.7586,-26.72748 -9.81231,-2.20302 -19.83987,-3.25388 -29.89275,-3.16526 h -94.42611 c -2.6335,0 -2.98802,1.05087 -2.98802,3.34251 v 62.41898 c 0,2.63351 0,3.34252 3.34252,3.34252 h 202.91869 c 0,0 1.75987,-0.35451 2.11438,-1.40537 h -0.86094 z m 0,111.83507 c -2.988,-0.32918 -6.00133,-0.32918 -8.98934,0 H 305.61004 c -2.6335,0 -3.51978,0 -3.51978,3.51977 v 61.02627 c 0,2.81076 0,3.51977 3.51978,3.51977 h 90.03274 c 4.30475,0.32919 8.60951,0.0252 12.82565,-0.87361 13.0662,-0.93691 25.91716,-3.77298 38.17307,-8.44492 4.45668,-1.54464 8.76145,-3.55775 12.82564,-5.97601 h 1.22813 c 21.10597,-10.97714 38.24903,-28.22149 49.06157,-49.39077 0,0 1.22812,-2.65882 -0.15194,-3.35518 z m -242.85163,99.70578 v -1.05087 -40.97116 -13.88917 -41.32567 c 0,-2.29165 0,-2.63351 -2.81075,-2.63351 H 225.7821 c -2.1144,0 -2.98801,0 -2.98801,-2.81074 V 420.52467 H 263.588 c 2.27899,0 3.16527,0 3.16527,-2.98802 v -33.05801 c 0,-2.11438 0,-2.63349 -2.81075,-2.63349 H 225.7821 c -2.1144,0 -2.98801,0 -2.98801,-2.81076 v -30.94361 c 0,-1.93713 0,-2.45624 2.81076,-2.45624 h 37.8059 c 2.63349,0 3.34252,0 3.34252,-3.34251 v -94.78065 c 0,-2.81073 0,-3.51976 3.51977,-3.51976 h 131.87752 c 9.57175,0.37983 19.0802,1.4307 28.48736,3.16527 19.38408,3.58307 38.00849,10.50867 55.0376,20.39694 11.29366,6.64705 21.68838,14.67417 30.9436,23.91673 6.96359,7.22946 13.24346,15.054 18.81433,23.38496 5.53288,8.44492 10.12884,17.47225 13.73725,26.90475 0.44313,2.45624 2.79809,4.11484 5.25433,3.69702 h 31.47538 c 4.03887,0 4.03887,0 4.21613,3.87428 v 28.84188 c 0,2.81075 -1.05086,3.51976 -3.87429,3.51976 h -24.27123 c -2.45625,0 -3.16527,0 -2.98801,3.16528 0.96224,10.71124 0.96224,21.46048 0,32.17172 0,2.98801 0,3.34253 3.35517,3.34253 h 27.76569 c 1.22813,1.58263 0,3.16526 0,4.76055 0.17726,2.03842 0.17726,4.10218 0,6.14061 v 21.28323 c 0,2.98802 -0.87361,3.87428 -3.51977,3.87428 h -33.23526 c -2.31697,-0.44314 -4.57064,1.03821 -5.10241,3.34251 -7.91315,20.57422 -20.5742,39.02138 -36.93229,53.80948 -5.97602,5.38095 -12.2559,10.44537 -18.81431,15.1173 -7.03956,4.05153 -13.88917,8.26767 -21.10597,11.61017 -13.28145,5.97602 -27.2086,10.38207 -41.50293,13.18016 -13.57265,2.43092 -27.33522,3.53244 -41.14843,3.34252 H 266.70262 v -0.17726 z"
   id="path2-3"
   style="stroke-width:1.2661;fill:#f5ac37;fill-opacity:1" /></svg>
