<?xml version="1.0" encoding="UTF-8" standalone="no"?>
<!-- Generator: Adobe Illustrator 24.0.0, SVG Export Plug-In . SVG Version: 6.00 Build 0)  -->

<svg
   version="1.1"
   id="Layer_1"
   x="0px"
   y="0px"
   viewBox="0 0 510.89575 513.03217"
   xml:space="preserve"
   sodipodi:docname="weth.svg"
   inkscape:version="1.3.2 (091e20e, 2023-11-25)"
   width="510.89575"
   height="513.03217"
   xmlns:inkscape="http://www.inkscape.org/namespaces/inkscape"
   xmlns:sodipodi="http://sodipodi.sourceforge.net/DTD/sodipodi-0.dtd"
   xmlns="http://www.w3.org/2000/svg"
   xmlns:svg="http://www.w3.org/2000/svg"><defs
   id="defs2"><clipPath
     id="clip-path"><rect
       id="Rectangle_341"
       data-name="Rectangle 341"
       width="131.94901"
       height="132.505"
       fill="none"
       x="0"
       y="0" /></clipPath></defs><sodipodi:namedview
   id="namedview2"
   pagecolor="#ffffff"
   bordercolor="#000000"
   borderopacity="0.25"
   inkscape:showpageshadow="2"
   inkscape:pageopacity="0.0"
   inkscape:pagecheckerboard="0"
   inkscape:deskcolor="#d1d1d1"
   inkscape:zoom="0.3292466"
   inkscape:cx="-63.781981"
   inkscape:cy="598.33572"
   inkscape:window-width="1616"
   inkscape:window-height="947"
   inkscape:window-x="649"
   inkscape:window-y="272"
   inkscape:window-maximized="0"
   inkscape:current-layer="Layer_1" />
<style
   type="text/css"
   id="style1">
	.st0{clip-path:url(#SVGID_2_);}
	.st1{fill:url(#SVGID_3_);}
	.st2{fill:#FFFFFF;}
</style>

<path
   d="m 268.26954,293.96124 v 0 c -1.71653,0.12874 -10.5853,0.658 -30.36836,0.658 -15.7349,0 -26.90669,-0.47205 -30.82611,-0.658 v 0 C 146.26682,291.2863 100.87878,280.701 100.87878,268.02725 c 0,-12.67374 45.38804,-23.24474 106.19629,-25.96259 v 41.35419 c 3.97664,0.28609 15.36299,0.9584 31.09789,0.9584 18.88189,0 28.33713,-0.78675 30.03936,-0.94409 v -41.33989 c 60.67951,2.70355 105.96743,13.28884 105.96743,25.93398 0,12.64514 -45.27361,23.23044 -105.96743,25.91968 v 0 z m 0,-56.145 v -37.00563 h 84.68239 V 144.37952 H 122.39268 v 56.43109 h 84.66809 v 36.99133 c -68.81875,3.16128 -120.572266,16.79343 -120.572266,33.12912 0,16.33569 51.753516,29.95353 120.572266,33.12912 v 118.58396 h 61.19447 V 304.01727 c 68.66139,-3.16129 120.32909,-16.77913 120.32909,-33.10052 0,-16.32138 -51.62478,-29.93922 -120.32909,-33.11481 v 0 z m 0,0 z"
   style="fill:#ffffff;fill-rule:evenodd;stroke-width:1.43045"
   id="path2-7" /><g
   id="Group_768"
   data-name="Group 768"
   transform="matrix(3.9945275,0,0,3.9945275,-16.000546,-4.2624477)"><g
     id="Group_768-2"
     data-name="Group 768"
     clip-path="url(#clip-path)"
     transform="matrix(0.96930565,0,0,0.96930565,4.0056167,1.0629813)"><path
       id="Path_848"
       data-name="Path 848"
       d="m 34.8,75.542 c 34,0 34,-0.507 39.767,-2.217 C 82.1,71.089 53.294,51.148 34.8,51.148 16.306,51.148 1.312,56.61 1.312,63.346 1.312,70.082 16.3,75.542 34.8,75.542"
       transform="translate(1.461,56.964)" /><path
       id="Path_849"
       data-name="Path 849"
       d="m 113.467,28.784 1.564,1.685 -1.365,1.847 C 69.321,92.275 43.775,119.421 32.936,115.782 26.336,113.563 19.715,106.894 13.093,97.209 10.766,93.804 8.58,90.219 6.593,86.653 5.27,84.277 4.15,82.111 3.568,80.891 a 14.361,14.361 0 0 1 -1.3,-3.775 l -0.03,-0.152 c -0.1,-0.535 -0.14,-0.7 -0.218,-1 A 60.455,60.455 0 0 1 89.893,7.656 l 0.23,0.144 q 10.967,7.638 23.344,20.985 M 87.067,12.429 A 54.925,54.925 0 0 0 7.375,74.546 c 0.12,0.452 0.175,0.706 0.3,1.361 L 7.7,76.042 A 9,9 0 0 0 8.571,78.5 c 0.531,1.114 1.6,3.175 2.864,5.449 1.911,3.428 4.01,6.872 6.233,10.127 5.984,8.749 11.915,14.726 17.032,16.445 6.827,2.293 32.523,-24.908 73.132,-79.648 A 139.482,139.482 0 0 0 87.067,12.429"
       transform="translate(0,0.001)" /><path
       id="Path_850"
       data-name="Path 850"
       d="M 84.146,9.507 A 54.925,54.925 0 0 0 4.453,71.625 c 0.12,0.452 0.175,0.706 0.3,1.361 l 0.025,0.135 a 9,9 0 0 0 0.869,2.462 c 0.531,1.114 1.6,3.175 2.864,5.449 1.911,3.428 4.01,6.872 6.233,10.127 5.984,8.749 11.915,14.726 17.032,16.445 C 38.607,109.9 64.3,82.7 104.911,27.956 A 139.482,139.482 0 0 0 84.146,9.507"
       transform="translate(2.921,2.922)"
       fill="#ec1c79" /><path
       id="Path_851"
       data-name="Path 851"
       d="m 65.677,126.107 a 60.431,60.431 0 1 1 60.431,-60.431 60.43,60.43 0 0 1 -60.431,60.431 m 0,-5.544 A 54.886,54.886 0 1 0 10.79,65.677 54.887,54.887 0 0 0 65.676,120.563"
       transform="translate(5.842,5.843)" /><path
       id="Path_852"
       data-name="Path 852"
       d="M 62.755,117.642 A 54.886,54.886 0 1 0 7.869,62.755 54.887,54.887 0 0 0 62.755,117.641"
       transform="translate(8.764,8.765)"
       fill="#ffffff" /><path
       id="Path_853"
       data-name="Path 853"
       d="M 18.239,50.72 10.974,28.832 H 17.34 L 21.128,41.406 25.317,28.77 H 30.5 l 4.191,12.636 3.788,-12.574 h 6.242 L 37.456,50.72 H 32.21 L 27.833,38.209 23.485,50.72 Z M 47.112,50.566 V 28.832 h 17.48 v 5.124 H 53.075 v 3.291 H 63.506 V 42 H 53.075 v 3.445 h 11.671 v 5.124 z m 26.02,0 V 34.11 h -6.519 v -5.278 h 19.059 v 5.278 h -6.519 v 16.455 z m 15.181,0 V 28.832 h 6.024 v 8.133 h 7.73 v -8.133 h 6.026 v 21.733 h -6.026 v -8.258 h -7.73 v 8.258 z"
       transform="translate(12.222,32.043)"
       fill-rule="evenodd" /><path
       id="Path_854"
       data-name="Path 854"
       d="m 2.609,28.806 a 3.1052276,3.1052276 0 0 1 2.777,-5.555 l 8.869,4.437 a 3.103886,3.103886 0 1 1 -2.775,5.553 z"
       transform="translate(0.993,25.531)" /><path
       id="Path_855"
       data-name="Path 855"
       d="m 2.172,35.787 a 3.1038593,3.1038593 0 1 1 2.6,-5.637 l 8.871,4.092 a 3.105,3.105 0 0 1 -2.6,5.639 z"
       transform="translate(0.409,33.26)" /></g></g></svg>
